<svg width="21" height="31" viewBox="0 0 21 31" fill="none" xmlns="http://www.w3.org/2000/svg">
<path d="M18.6537 4.93047H15.5057V4.32174C15.5057 3.53844 14.8742 2.9012 14.0979 2.9012H13.9241C13.6017 1.29146 12.189 0.0756836 10.5002 0.0756836C8.81134 0.0756836 7.39866 1.29146 7.07612 2.9012H6.90208C6.12582 2.9012 5.4943 3.53844 5.4943 4.32174V4.93047H2.3463C1.0526 4.93047 0 5.99262 0 7.29805V27.7081C0 29.0135 1.0526 30.0757 2.3463 30.0757H18.6537C19.9474 30.0757 21 29.0135 21 27.7081V7.29805C21 5.99251 19.9474 4.93047 18.6537 4.93047ZM7.0585 4.47958H13.9416V7.06508H7.0585V4.47958ZM10.5002 1.65407C11.3194 1.65407 12.0191 2.17293 12.2984 2.9012H8.70195C8.98121 2.17293 9.68093 1.65407 10.5002 1.65407ZM19.4358 27.7081C19.4358 28.1433 19.085 28.4973 18.6537 28.4973H2.3463C1.915 28.4973 1.5642 28.1433 1.5642 27.7081V7.29805C1.5642 6.86283 1.915 6.50886 2.3463 6.50886H5.4943V7.22292C5.4943 8.00621 6.12582 8.64346 6.90208 8.64346H14.098C14.8743 8.64346 15.5058 8.00621 15.5058 7.22292V6.50886H18.6538C19.0851 6.50886 19.4359 6.86283 19.4359 7.29805V27.7081H19.4358Z" fill="url(#paint0_linear_1_568)"/>
<defs>
<linearGradient id="paint0_linear_1_568" x1="1.7907" y1="30.0757" x2="23" y2="9.07568" gradientUnits="userSpaceOnUse">
<stop offset="0.27" stop-color="#05B6F8"/>
<stop offset="0.855" stop-color="#82DD7A"/>
</linearGradient>
</defs>
</svg>
