<svg width="22" height="21" viewBox="0 0 22 21" fill="none" xmlns="http://www.w3.org/2000/svg">
<path d="M9.26562 0.25C13.9592 0.250216 17.7801 4.0593 17.7803 8.74121C17.7803 10.7712 17.0552 12.632 15.8594 14.0928C15.8638 14.0963 15.8684 14.0998 15.873 14.1035C16.0096 14.2125 16.2046 14.3701 16.4404 14.5635C16.9119 14.95 17.5463 15.4814 18.1953 16.0615C18.8435 16.6409 19.5103 17.2719 20.0459 17.8564C20.3137 18.1487 20.5521 18.4327 20.7393 18.6953C20.924 18.9545 21.0701 19.2082 21.1396 19.4375L21.2119 19.7178C21.2657 19.982 21.2644 20.1997 21.1992 20.3721C21.1528 20.4947 21.0743 20.5908 20.9727 20.6553C20.8746 20.7174 20.7682 20.7417 20.6729 20.748C20.4877 20.7603 20.3004 20.7078 20.1758 20.6631C20.1103 20.6396 20.0543 20.6159 20.0146 20.5977C19.9947 20.5885 19.9783 20.58 19.9668 20.5742L19.9473 20.5645L20.0645 20.3438L19.9463 20.5645C19.9247 20.5529 19.905 20.5378 19.8877 20.5205L14.6533 15.2998C13.1852 16.503 11.3111 17.2333 9.26562 17.2334C4.57173 17.2334 0.75 13.4234 0.75 8.74121C0.750195 4.05917 4.57185 0.25 9.26562 0.25ZM9.26562 1.92773C5.49605 1.92773 2.43086 4.98422 2.43066 8.74121C2.43066 12.4984 5.49593 15.5557 9.26562 15.5557C13.0351 15.5554 16.0996 12.4982 16.0996 8.74121C16.0994 4.98435 13.035 1.92795 9.26562 1.92773Z" fill="url(#paint0_linear_1_587)" stroke="url(#paint1_linear_1_587)" stroke-width="0.5" stroke-linecap="round" stroke-linejoin="round"/>
<defs>
<linearGradient id="paint0_linear_1_587" x1="2.70543" y1="20.5" x2="11" y2="20.5" gradientUnits="userSpaceOnUse">
<stop offset="0.27" stop-color="#05B6F8"/>
<stop offset="0.72" stop-color="#82DD7A"/>
</linearGradient>
<linearGradient id="paint1_linear_1_587" x1="2.70543" y1="20.5" x2="11" y2="20.5" gradientUnits="userSpaceOnUse">
<stop offset="0.27" stop-color="#05B6F8"/>
<stop offset="0.72" stop-color="#82DD7A"/>
</linearGradient>
</defs>
</svg>
