<svg width="20" height="28" viewBox="0 0 20 28" fill="none" xmlns="http://www.w3.org/2000/svg">
<path d="M10.0002 0.849609C15.0457 0.849758 19.1497 4.95085 19.1497 9.99609C19.1496 12.2328 18.2324 14.102 17.2424 15.8594L16.8157 16.6064C16.6607 16.8767 16.5181 17.1062 16.3694 17.3711V17.3721L13.304 22.708L13.303 22.707C13.2104 22.8714 13.0736 22.9498 12.926 22.9834C12.858 22.9988 12.785 23.0052 12.7131 23.0078L12.5051 23.0088L7.5686 23.1514H7.56274C7.29404 23.1498 6.95616 23.1254 6.77368 22.8105V22.8115L6.67603 22.6602L6.67017 22.6523V22.6514C6.2735 21.945 5.87669 21.2417 5.47876 20.5391L4.27954 18.4297L3.55981 17.2129C2.30418 15.1157 0.850027 12.695 0.849854 10.001C0.849854 4.95575 4.95459 0.849609 10.0002 0.849609ZM10.0002 2.68945C5.96602 2.68945 2.68384 5.97164 2.68384 10.0059C2.68398 12.1784 3.91296 14.2392 5.13306 16.2773L5.50903 16.9082C5.63256 17.1171 5.75338 17.3253 5.87134 17.5322H5.87231C6.62261 18.8469 7.36437 20.1669 8.10571 21.4863L11.969 21.5039L14.7698 16.5107H14.7708L15.2249 15.7129L15.6282 15.0068C16.5499 13.3712 17.3167 11.8042 17.3167 10.0059C17.3166 5.97135 14.0343 2.6896 10.0002 2.68945Z" fill="url(#paint0_linear_1_594)" stroke="url(#paint1_linear_1_594)" stroke-width="0.3"/>
<path d="M12.6699 24.0088C12.9873 24.0089 13.2451 24.2666 13.2451 24.584C13.245 24.9013 12.9872 25.1591 12.6699 25.1592H8.06934C7.75156 25.1592 7.49421 24.9014 7.49414 24.584C7.49414 24.2665 7.75152 24.0088 8.06934 24.0088H12.6699Z" fill="url(#paint2_linear_1_594)"/>
<path d="M12.6699 24.0088C12.9873 24.0089 13.2451 24.2666 13.2451 24.584C13.245 24.9013 12.9872 25.1591 12.6699 25.1592H8.06934C7.75156 25.1592 7.49421 24.9014 7.49414 24.584C7.49414 24.2665 7.75152 24.0088 8.06934 24.0088H12.6699Z" stroke="url(#paint3_linear_1_594)"/>
<path d="M12.2869 25.9258C12.6041 25.926 12.8611 26.1837 12.8611 26.501C12.861 26.8182 12.6041 27.076 12.2869 27.0762H8.45288C8.13511 27.0762 7.87776 26.8184 7.87769 26.501C7.87769 26.1835 8.13506 25.9258 8.45288 25.9258H12.2869Z" fill="url(#paint4_linear_1_594)"/>
<path d="M12.2869 25.9258C12.6041 25.926 12.8611 26.1837 12.8611 26.501C12.861 26.8182 12.6041 27.076 12.2869 27.0762H8.45288C8.13511 27.0762 7.87776 26.8184 7.87769 26.501C7.87769 26.1835 8.13506 25.9258 8.45288 25.9258H12.2869Z" stroke="url(#paint5_linear_1_594)"/>
<defs>
<linearGradient id="paint0_linear_1_594" x1="10.0002" y1="1" x2="10.0002" y2="23.0011" gradientUnits="userSpaceOnUse">
<stop stop-color="#5EBE56"/>
<stop offset="1" stop-color="#05B6F8"/>
</linearGradient>
<linearGradient id="paint1_linear_1_594" x1="10.0002" y1="1" x2="10.0002" y2="23.0011" gradientUnits="userSpaceOnUse">
<stop stop-color="#5EBE56"/>
<stop offset="1" stop-color="#05B6F8"/>
</linearGradient>
<linearGradient id="paint2_linear_1_594" x1="10.3695" y1="24.0088" x2="10.3695" y2="25.1589" gradientUnits="userSpaceOnUse">
<stop stop-color="#5EBE56"/>
<stop offset="1" stop-color="#05B6F8"/>
</linearGradient>
<linearGradient id="paint3_linear_1_594" x1="10.3695" y1="24.0088" x2="10.3695" y2="25.1589" gradientUnits="userSpaceOnUse">
<stop stop-color="#5EBE56"/>
<stop offset="1" stop-color="#05B6F8"/>
</linearGradient>
<linearGradient id="paint4_linear_1_594" x1="10.3696" y1="25.9258" x2="10.3696" y2="27.0759" gradientUnits="userSpaceOnUse">
<stop stop-color="#5EBE56"/>
<stop offset="1" stop-color="#05B6F8"/>
</linearGradient>
<linearGradient id="paint5_linear_1_594" x1="10.3696" y1="25.9258" x2="10.3696" y2="27.0759" gradientUnits="userSpaceOnUse">
<stop stop-color="#5EBE56"/>
<stop offset="1" stop-color="#05B6F8"/>
</linearGradient>
</defs>
</svg>
