<svg width="24" height="24" viewBox="0 0 24 24" fill="none" xmlns="http://www.w3.org/2000/svg">
<path d="M22.7892 7.94255H15.4146L13.1362 0.895893C13.0578 0.657226 12.9062 0.449478 12.7032 0.302217C12.5003 0.154955 12.2561 0.0756836 12.0056 0.0756836C11.7551 0.0756836 11.511 0.154955 11.308 0.302217C11.1051 0.449478 10.9535 0.657226 10.875 0.895893L8.56243 7.94255H1.1878C0.93718 7.94313 0.693131 8.02305 0.490424 8.17093C0.287717 8.3188 0.136691 8.52708 0.0588615 8.7661C-0.0189678 9.00512 -0.0196309 9.26269 0.0569665 9.50211C0.133564 9.74153 0.283515 9.9506 0.485458 10.0995L6.48109 14.4564L4.18562 21.5117C4.12753 21.6908 4.1125 21.8812 4.14177 22.0674C4.17103 22.2535 4.24376 22.43 4.35402 22.5825C4.46427 22.735 4.60892 22.8592 4.77615 22.9449C4.94337 23.0306 5.12844 23.0754 5.31623 23.0757C5.56067 23.0651 5.79634 22.9813 5.99288 22.8351L11.9885 18.4782L17.9841 22.8351C18.1865 22.9815 18.4285 23.0624 18.6779 23.0671C18.8657 23.0668 19.0508 23.022 19.218 22.9363C19.3852 22.8506 19.5299 22.7264 19.6401 22.5739C19.7504 22.4214 19.8231 22.2449 19.8524 22.0588C19.8817 21.8727 19.8666 21.6822 19.8085 21.5031L17.5302 14.4478L23.5258 10.0909C23.7266 9.93916 23.8744 9.72752 23.9479 9.48634C24.0215 9.24516 24.017 8.98682 23.9353 8.74832C23.8535 8.50982 23.6986 8.30341 23.4927 8.15866C23.2868 8.01392 23.0406 7.93827 22.7892 7.94255ZM16.5024 13.0986L15.5002 13.8377L15.8771 15.0236L17.6672 20.532L12.9992 17.0946L11.9885 16.3556L10.9778 17.0946L6.30979 20.532L8.09991 15.0236L8.47678 13.8377L7.47465 13.0986L2.80662 9.66125H9.82152L10.207 8.47535L11.9885 2.97552L13.7701 8.47535L14.1555 9.66125H21.1704L16.5024 13.0986Z" fill="url(#paint0_linear_1_608)"/>
<defs>
<linearGradient id="paint0_linear_1_608" x1="12" y1="0.0756836" x2="12" y2="23.0757" gradientUnits="userSpaceOnUse">
<stop stop-color="#5EBE56"/>
<stop offset="1" stop-color="#05B6F8"/>
</linearGradient>
</defs>
</svg>
