<svg width="19" height="29" viewBox="0 0 19 29" fill="none" xmlns="http://www.w3.org/2000/svg">
<path d="M1.83012 1.91063C1.15554 1.23427 0 1.71202 0 2.66728V25.5597C0 26.472 1.06771 26.9666 1.76357 26.3767L6.05604 22.7068L8.21891 27.0902C8.47278 27.6273 9.1245 27.8434 9.64974 27.566L12.944 25.833C13.4631 25.5679 13.6777 24.9384 13.4286 24.4115L13.4098 24.3718L11.4466 20.4301L16.8371 19.7504C17.7243 19.6389 18.095 18.5544 17.4694 17.9155L1.83012 1.91063ZM2.1296 5.34267L14.4413 17.8815L9.64974 18.4592C8.91562 18.5591 8.49771 19.3516 8.82987 20.0139L8.85114 20.0563L11.0473 24.4058L9.64974 25.1534L7.35377 20.464L7.34511 20.4473C7.02665 19.8311 6.21682 19.673 5.69002 20.1242L2.1296 23.1825V5.34267Z" fill="url(#paint0_linear_1_616)"/>
<defs>
<linearGradient id="paint0_linear_1_616" x1="9.5" y1="0.0756836" x2="9.5" y2="28.0757" gradientUnits="userSpaceOnUse">
<stop stop-color="#5EBE56"/>
<stop offset="1" stop-color="#05B6F8"/>
</linearGradient>
</defs>
</svg>
