<svg width="19" height="16" viewBox="0 0 19 16" fill="none" xmlns="http://www.w3.org/2000/svg">
<path d="M16.6111 0.417969H2.40164C1.76806 0.417969 1.16042 0.669661 0.712402 1.11768C0.264387 1.56569 0.0126953 2.17333 0.0126953 2.80692V13.1941C0.0126953 13.8277 0.264387 14.4353 0.712402 14.8833C1.16042 15.3313 1.76806 15.583 2.40164 15.583H16.6111C17.2447 15.583 17.8523 15.3313 18.3004 14.8833C18.7484 14.4353 19.0001 13.8277 19.0001 13.1941V2.80692C19.0001 2.17333 18.7484 1.56569 18.3004 1.11768C17.8523 0.669661 17.2447 0.417969 16.6111 0.417969ZM2.40164 1.37355H16.6111C16.9728 1.37251 17.3213 1.50925 17.5858 1.75598C17.8503 2.00271 18.0109 2.34091 18.0349 2.7018C15.6746 3.96317 13.3048 5.21498 10.935 6.47635C10.6144 6.67726 10.2752 6.84687 9.92206 6.9828C9.64485 7.03751 9.35917 7.03257 9.08402 6.96831C8.80886 6.90406 8.55055 6.78195 8.32624 6.61013C6.96932 5.89344 5.61239 5.1672 4.26503 4.45052C3.17566 3.87717 2.06719 3.29426 0.977831 2.71136C0.999993 2.34892 1.1597 2.00863 1.42433 1.75998C1.68896 1.51134 2.03853 1.37312 2.40164 1.37355ZM18.0445 13.1941C18.0445 13.5742 17.8935 13.9388 17.6247 14.2076C17.3559 14.4764 16.9913 14.6274 16.6111 14.6274H2.40164C2.02149 14.6274 1.65691 14.4764 1.3881 14.2076C1.11929 13.9388 0.968275 13.5742 0.968275 13.1941V3.79594C3.22344 4.98086 5.46906 6.18489 7.72422 7.37937C8.12714 7.6264 8.5609 7.81918 9.01426 7.95272C9.67779 8.0606 10.3579 7.92119 10.9254 7.56093C12.311 6.83469 13.687 6.09889 15.0726 5.37265C16.0664 4.83753 17.0507 4.32151 18.0445 3.79594V13.1941Z" fill="black"/>
</svg>
