<svg width="18" height="19" viewBox="0 0 18 19" fill="none" xmlns="http://www.w3.org/2000/svg">
<mask id="mask0_1_44773" style="mask-type:luminance" maskUnits="userSpaceOnUse" x="-1" y="0" width="19" height="19">
<rect x="-0.000488281" y="0.5" width="18" height="18" fill="white"/>
</mask>
<g mask="url(#mask0_1_44773)">
<path fill-rule="evenodd" clip-rule="evenodd" d="M16.3536 8.03113H15.7495V8H8.99951V11H13.2381C12.6198 12.7464 10.9581 14 8.99951 14C6.51439 14 4.49951 11.9851 4.49951 9.5C4.49951 7.01488 6.51439 5 8.99951 5C10.1466 5 11.1903 5.43275 11.9849 6.13963L14.1063 4.01825C12.7668 2.76987 10.975 2 8.99951 2C4.85764 2 1.49951 5.35813 1.49951 9.5C1.49951 13.6419 4.85764 17 8.99951 17C13.1414 17 16.4995 13.6419 16.4995 9.5C16.4995 8.99713 16.4478 8.50625 16.3536 8.03113Z" fill="#FFC107"/>
<path fill-rule="evenodd" clip-rule="evenodd" d="M2.36426 6.00912L4.82838 7.81625C5.49513 6.1655 7.10988 5 8.99951 5C10.1466 5 11.1903 5.43275 11.9849 6.13962L14.1063 4.01825C12.7668 2.76987 10.975 2 8.99951 2C6.11876 2 3.62051 3.62637 2.36426 6.00912Z" fill="#FF3D00"/>
<path fill-rule="evenodd" clip-rule="evenodd" d="M8.99963 16.9993C10.9369 16.9993 12.6971 16.2579 14.028 15.0523L11.7068 13.088C10.9538 13.6584 10.0178 13.9993 8.99963 13.9993C7.04888 13.9993 5.3925 12.7554 4.7685 11.0195L2.32275 12.9039C3.564 15.3328 6.08475 16.9993 8.99963 16.9993Z" fill="#4CAF50"/>
<path fill-rule="evenodd" clip-rule="evenodd" d="M16.3536 8.03113H15.7495V8H8.99951V11H13.2381C12.9411 11.8389 12.4015 12.5623 11.7055 13.0891C11.7059 13.0888 11.7063 13.0887 11.7066 13.0884L14.0279 15.0526C13.8636 15.2019 16.4995 13.25 16.4995 9.5C16.4995 8.99713 16.4478 8.50625 16.3536 8.03113Z" fill="#1976D2"/>
</g>
</svg>
