<svg width="16" height="19" viewBox="0 0 16 19" fill="none" xmlns="http://www.w3.org/2000/svg">
<path d="M1 3.57576H5.2M5.2 3.57576V2.13333C5.2 1.50742 5.64772 1 6.2 1H9.8C10.3523 1 10.8 1.50742 10.8 2.13333V3.57576M5.2 3.57576H10.8M15 3.57576H10.8M2.4 5.63636V13.8787C2.4 15.8215 2.4 16.7929 2.94673 17.3965C3.49347 18 4.37342 18 6.1333 18H9.8667C11.6266 18 12.5065 18 13.0533 17.3965C13.6 16.7929 13.6 15.8215 13.6 13.8787V5.63636M5.2 7.69698V13.8787M8 7.69698V13.8787M10.8 7.69698V13.8787" stroke="#D40307" stroke-linecap="round" stroke-linejoin="round"/>
</svg>
