<svg width="22" height="19" viewBox="0 0 22 19" fill="none" xmlns="http://www.w3.org/2000/svg">
<path d="M5.49996 14.0246C4.25223 14.0246 3.05561 13.5505 2.17334 12.7066C1.29107 11.8627 0.79541 10.7181 0.79541 9.52461C0.79541 8.33114 1.29107 7.18654 2.17334 6.34263C3.05561 5.49872 4.25223 5.02461 5.49996 5.02461C5.79464 3.71179 6.65672 2.55809 7.89654 1.81732C8.51044 1.45053 9.1986 1.19616 9.92173 1.06872C10.6449 0.941287 11.3888 0.943288 12.1111 1.07461C12.8333 1.20593 13.5198 1.464 14.1312 1.83409C14.7427 2.20418 15.2672 2.67903 15.6747 3.23154C16.0823 3.78405 16.3649 4.40339 16.5065 5.05421C16.6481 5.70502 16.6459 6.37457 16.5 7.02461H17.5C18.4282 7.02461 19.3185 7.39336 19.9748 8.04974C20.6312 8.70611 21 9.59635 21 10.5246C21 11.4529 20.6312 12.3431 19.9748 12.9995C19.3185 13.6559 18.4282 14.0246 17.5 14.0246H16.5M11.4995 10.0247L9.49951 14.0247H12.4995L10.4995 18.0247" stroke="#838383" stroke-linecap="round" stroke-linejoin="round"/>
</svg>
