<svg width="19" height="19" viewBox="0 0 19 19" fill="none" xmlns="http://www.w3.org/2000/svg">
<path d="M1 9.99292C1.325 12.5249 2.881 14.7739 5 15.9929M17 7.99287C16.7554 6.23309 15.9391 4.60253 14.6766 3.35237C13.4142 2.1022 11.7758 1.30179 10.0137 1.07442C8.25159 0.847057 6.46362 1.20535 4.9252 2.09412C3.38678 2.98288 2.18325 4.35281 1.5 5.99287M1 1.99292V5.99292H5M9 11.9929H11C11.2652 11.9929 11.5196 12.0983 11.7071 12.2858C11.8946 12.4733 12 12.7277 12 12.9929V13.9929C12 14.2581 11.8946 14.5125 11.7071 14.7C11.5196 14.8876 11.2652 14.9929 11 14.9929H10C9.73478 14.9929 9.48043 15.0983 9.29289 15.2858C9.10536 15.4733 9 15.7277 9 15.9929V16.9929C9 17.2581 9.10536 17.5125 9.29289 17.7C9.48043 17.8876 9.73478 17.9929 10 17.9929H12M15 11.9929V13.9929C15 14.2581 15.1054 14.5125 15.2929 14.7C15.4804 14.8876 15.7348 14.9929 16 14.9929H17M18 11.9929V17.9929" stroke="#838383" stroke-linecap="round" stroke-linejoin="round"/>
</svg>
