<svg width="20" height="19" viewBox="0 0 20 19" fill="none" xmlns="http://www.w3.org/2000/svg">
<path d="M8 8.5V6.5C8 5.96957 8.21071 5.46086 8.58579 5.08579C8.96086 4.71071 9.46957 4.5 10 4.5C10.5304 4.5 11.0391 4.71071 11.4142 5.08579C11.7893 5.46086 12 5.96957 12 6.5V8.5M10 0.5C17.2 0.5 19 2.3 19 9.5C19 16.7 17.2 18.5 10 18.5C2.8 18.5 1 16.7 1 9.5C1 2.3 2.8 0.5 10 0.5ZM6 9.5C6 9.23478 6.10536 8.98043 6.29289 8.79289C6.48043 8.60536 6.73478 8.5 7 8.5H13C13.2652 8.5 13.5196 8.60536 13.7071 8.79289C13.8946 8.98043 14 9.23478 14 9.5V12.5C14 12.7652 13.8946 13.0196 13.7071 13.2071C13.5196 13.3946 13.2652 13.5 13 13.5H7C6.73478 13.5 6.48043 13.3946 6.29289 13.2071C6.10536 13.0196 6 12.7652 6 12.5V9.5Z" stroke="#838383" stroke-linecap="round" stroke-linejoin="round"/>
</svg>
