<svg width="16" height="17" viewBox="0 0 16 17" fill="none" xmlns="http://www.w3.org/2000/svg">
  <mask id="mask0_1_45159" style="mask-type:luminance" maskUnits="userSpaceOnUse" x="0" y="0" width="16" height="17">
    <rect y="0.5" width="16" height="16" fill="white"/>
  </mask>
  <g mask="url(#mask0_1_45159)">
    <path fill-rule="evenodd" clip-rule="evenodd" d="M14.1213 2.62132L2.62132 14.1213L1.37868 12.8787L12.8787 1.37868L14.1213 2.62132ZM3.219 9.095C4.161 10.632 5.916 12 8 12C8.86216 12 9.65873 11.7885 10.355 11.428L9.438 10.511C9.00171 10.8333 8.51172 11 8 11C6.61929 11 5.5 9.88071 5.5 8.5C5.5 7.98828 5.66675 7.49829 5.989 7.062L5.072 6.145C4.37723 6.84105 3.76219 7.7078 3.219 8.905V9.095ZM8.5 6.5C9.38071 6.5 10.125 7.24429 10.125 8.125C10.125 8.40799 10.043 8.67191 9.902 8.902L7.598 6.598C7.82809 6.45701 8.09201 6.375 8.375 6.375H8.5V6.5ZM2.832 6.457C4.121 5.168 5.88 4 8 4C10.12 4 11.879 5.168 13.168 6.457C13.7884 7.08068 14.3445 7.76513 14.828 8.5C14.5443 8.95152 14.2352 9.38363 13.902 9.792L12.988 8.878C13.046 8.76302 13.0993 8.64605 13.148 8.528C12.6936 7.71387 12.0623 6.98177 11.293 6.457C10.004 5.168 8.244 4 6.125 4C5.29572 4 4.48995 4.18133 3.75 4.531L2.832 3.613L1.58936 4.85564L2.832 6.457Z" fill="#BCBCBC"/>
  </g>
</svg>
