<svg width="19" height="19" viewBox="0 0 19 19" fill="none" xmlns="http://www.w3.org/2000/svg">
<mask id="mask0_1_45146" style="mask-type:luminance" maskUnits="userSpaceOnUse" x="0" y="0" width="19" height="19">
<rect x="0.5" y="0.5" width="18" height="18" fill="white"/>
</mask>
<g mask="url(#mask0_1_45146)">
<path fill-rule="evenodd" clip-rule="evenodd" d="M16.8541 8.03113H16.25V8H9.5V11H13.7386C13.1203 12.7464 11.4586 14 9.5 14C7.01488 14 5 11.9851 5 9.5C5 7.01488 7.01488 5 9.5 5C10.6471 5 11.6908 5.43275 12.4854 6.13963L14.6067 4.01825C13.2673 2.76987 11.4755 2 9.5 2C5.35813 2 2 5.35813 2 9.5C2 13.6419 5.35813 17 9.5 17C13.6419 17 17 13.6419 17 9.5C17 8.99713 16.9482 8.50625 16.8541 8.03113Z" fill="#FFC107"/>
<path fill-rule="evenodd" clip-rule="evenodd" d="M2.86475 6.00912L5.32887 7.81625C5.99562 6.1655 7.61037 5 9.5 5C10.6471 5 11.6907 5.43275 12.4854 6.13962L14.6067 4.01825C13.2672 2.76987 11.4755 2 9.5 2C6.61925 2 4.121 3.62637 2.86475 6.00912Z" fill="#FF3D00"/>
<path fill-rule="evenodd" clip-rule="evenodd" d="M9.50012 16.9993C11.4374 16.9993 13.1976 16.2579 14.5285 15.0523L12.2072 13.088C11.4542 13.6584 10.5182 13.9993 9.50012 13.9993C7.54937 13.9993 5.89299 12.7554 5.26899 11.0195L2.82324 12.9039C4.06449 15.3328 6.58524 16.9993 9.50012 16.9993Z" fill="#4CAF50"/>
<path fill-rule="evenodd" clip-rule="evenodd" d="M16.8541 8.03113H16.25V8H9.5V11H13.7386C13.4416 11.8389 12.902 12.5623 12.206 13.0891C12.2064 13.0888 12.2068 13.0887 12.2071 13.0884L14.5284 15.0526C14.3641 15.2019 17 13.25 17 9.5C17 8.99713 16.9482 8.50625 16.8541 8.03113Z" fill="#1976D2"/>
</g>
</svg>
